<mxfile host="app.diagrams.net" modified="2022-07-12T15:11:10.195Z" agent="5.0 (Macintosh; Intel Mac OS X 10_15_7) AppleWebKit/605.1.15 (KHTML, like Gecko) Version/15.4 Safari/605.1.15" etag="QsNyz4mH3ddW8xacr2aj" version="20.0.4" type="github">
  <diagram id="C5RBs43oDa-KdzZeNtuy" name="Page-1">
    <mxGraphModel dx="946" dy="645" grid="1" gridSize="10" guides="1" tooltips="1" connect="1" arrows="1" fold="1" page="1" pageScale="1" pageWidth="827" pageHeight="1169" background="#F1FAEE" math="0" shadow="0">
      <root>
        <mxCell id="WIyWlLk6GJQsqaUBKTNV-0" />
        <mxCell id="WIyWlLk6GJQsqaUBKTNV-1" parent="WIyWlLk6GJQsqaUBKTNV-0" />
        <mxCell id="y-X6n5EOjBlt5xmAGWL0-20" value="" style="edgeStyle=orthogonalEdgeStyle;rounded=0;orthogonalLoop=1;jettySize=auto;html=1;fontFamily=Tahoma;fontSize=12;strokeColor=#457B9D;fontColor=#1D3557;labelBackgroundColor=#F1FAEE;sketch=1;curved=1;" edge="1" parent="WIyWlLk6GJQsqaUBKTNV-1" source="y-X6n5EOjBlt5xmAGWL0-11" target="y-X6n5EOjBlt5xmAGWL0-12">
          <mxGeometry relative="1" as="geometry" />
        </mxCell>
        <mxCell id="y-X6n5EOjBlt5xmAGWL0-11" value="Start &amp;nbsp;printf" style="rounded=0;whiteSpace=wrap;html=1;fontFamily=Tahoma;fontSize=12;fillColor=#A8DADC;strokeColor=#457B9D;fontColor=#1D3557;sketch=1;" vertex="1" parent="WIyWlLk6GJQsqaUBKTNV-1">
          <mxGeometry x="150" y="40" width="120" height="60" as="geometry" />
        </mxCell>
        <mxCell id="y-X6n5EOjBlt5xmAGWL0-21" value="" style="edgeStyle=orthogonalEdgeStyle;rounded=0;orthogonalLoop=1;jettySize=auto;html=1;fontFamily=Tahoma;fontSize=12;strokeColor=#457B9D;fontColor=#1D3557;labelBackgroundColor=#F1FAEE;sketch=1;curved=1;" edge="1" parent="WIyWlLk6GJQsqaUBKTNV-1" source="y-X6n5EOjBlt5xmAGWL0-12" target="y-X6n5EOjBlt5xmAGWL0-13">
          <mxGeometry relative="1" as="geometry" />
        </mxCell>
        <mxCell id="y-X6n5EOjBlt5xmAGWL0-12" value="User input: &quot;Hello C18!&quot;" style="shape=parallelogram;perimeter=parallelogramPerimeter;whiteSpace=wrap;html=1;fixedSize=1;fontFamily=Tahoma;fontSize=12;fillColor=#A8DADC;strokeColor=#457B9D;fontColor=#1D3557;sketch=1;rounded=0;" vertex="1" parent="WIyWlLk6GJQsqaUBKTNV-1">
          <mxGeometry x="130" y="140" width="160" height="60" as="geometry" />
        </mxCell>
        <mxCell id="y-X6n5EOjBlt5xmAGWL0-22" value="" style="edgeStyle=orthogonalEdgeStyle;rounded=0;orthogonalLoop=1;jettySize=auto;html=1;fontFamily=Tahoma;fontSize=12;strokeColor=#457B9D;fontColor=#1D3557;labelBackgroundColor=#F1FAEE;sketch=1;curved=1;" edge="1" parent="WIyWlLk6GJQsqaUBKTNV-1" source="y-X6n5EOjBlt5xmAGWL0-13" target="y-X6n5EOjBlt5xmAGWL0-14">
          <mxGeometry relative="1" as="geometry" />
        </mxCell>
        <mxCell id="y-X6n5EOjBlt5xmAGWL0-13" value="Function looks for format specifiers defined in variadic argument list defined in header&lt;br&gt;Ex) %d, %i, %c, %s" style="rounded=0;whiteSpace=wrap;html=1;fontFamily=Tahoma;fontSize=12;fillColor=#A8DADC;strokeColor=#457B9D;fontColor=#1D3557;sketch=1;" vertex="1" parent="WIyWlLk6GJQsqaUBKTNV-1">
          <mxGeometry x="140" y="240" width="140" height="90" as="geometry" />
        </mxCell>
        <mxCell id="y-X6n5EOjBlt5xmAGWL0-36" value="" style="edgeStyle=orthogonalEdgeStyle;curved=1;sketch=1;orthogonalLoop=1;jettySize=auto;html=1;fontColor=#1D3557;strokeColor=#457B9D;fillColor=#A8DADC;" edge="1" parent="WIyWlLk6GJQsqaUBKTNV-1" source="y-X6n5EOjBlt5xmAGWL0-14" target="y-X6n5EOjBlt5xmAGWL0-17">
          <mxGeometry relative="1" as="geometry" />
        </mxCell>
        <mxCell id="y-X6n5EOjBlt5xmAGWL0-14" value="Is format == NULL?" style="rhombus;whiteSpace=wrap;html=1;fontFamily=Tahoma;fontSize=12;fillColor=#A8DADC;strokeColor=#457B9D;fontColor=#1D3557;sketch=1;rounded=0;" vertex="1" parent="WIyWlLk6GJQsqaUBKTNV-1">
          <mxGeometry x="150" y="360" width="120" height="100" as="geometry" />
        </mxCell>
        <mxCell id="y-X6n5EOjBlt5xmAGWL0-15" value="return (-1)" style="rounded=0;whiteSpace=wrap;html=1;fontFamily=Tahoma;fontSize=12;fillColor=#A8DADC;strokeColor=#457B9D;fontColor=#1D3557;sketch=1;" vertex="1" parent="WIyWlLk6GJQsqaUBKTNV-1">
          <mxGeometry x="160" y="490" width="100" height="40" as="geometry" />
        </mxCell>
        <mxCell id="y-X6n5EOjBlt5xmAGWL0-16" value="va_list functions called" style="rounded=0;whiteSpace=wrap;html=1;fontFamily=Tahoma;fontSize=12;fillColor=#A8DADC;strokeColor=#457B9D;fontColor=#1D3557;sketch=1;" vertex="1" parent="WIyWlLk6GJQsqaUBKTNV-1">
          <mxGeometry x="380" y="240" width="136" height="90" as="geometry" />
        </mxCell>
        <mxCell id="y-X6n5EOjBlt5xmAGWL0-17" value="END" style="rounded=0;whiteSpace=wrap;html=1;fontFamily=Tahoma;fontSize=12;fillColor=#A8DADC;strokeColor=#457B9D;fontColor=#1D3557;sketch=1;" vertex="1" parent="WIyWlLk6GJQsqaUBKTNV-1">
          <mxGeometry x="160" y="560" width="100" height="45" as="geometry" />
        </mxCell>
        <mxCell id="y-X6n5EOjBlt5xmAGWL0-18" value="putchar [j]" style="rounded=0;whiteSpace=wrap;html=1;fontFamily=Tahoma;fontSize=12;fillColor=#A8DADC;strokeColor=#457B9D;fontColor=#1D3557;sketch=1;" vertex="1" parent="WIyWlLk6GJQsqaUBKTNV-1">
          <mxGeometry x="388" y="370" width="120" height="50" as="geometry" />
        </mxCell>
        <mxCell id="y-X6n5EOjBlt5xmAGWL0-35" style="edgeStyle=orthogonalEdgeStyle;curved=1;sketch=1;orthogonalLoop=1;jettySize=auto;html=1;fontColor=#1D3557;strokeColor=#457B9D;fillColor=#A8DADC;" edge="1" parent="WIyWlLk6GJQsqaUBKTNV-1" source="y-X6n5EOjBlt5xmAGWL0-19">
          <mxGeometry relative="1" as="geometry">
            <mxPoint x="280" y="340" as="targetPoint" />
          </mxGeometry>
        </mxCell>
        <mxCell id="y-X6n5EOjBlt5xmAGWL0-19" value="j++" style="rounded=0;whiteSpace=wrap;html=1;fontFamily=Tahoma;fontSize=12;fillColor=#A8DADC;strokeColor=#457B9D;fontColor=#1D3557;sketch=1;" vertex="1" parent="WIyWlLk6GJQsqaUBKTNV-1">
          <mxGeometry x="387" y="460" width="122" height="40" as="geometry" />
        </mxCell>
        <mxCell id="y-X6n5EOjBlt5xmAGWL0-26" value="" style="endArrow=classic;html=1;rounded=0;fontFamily=Tahoma;fontSize=12;exitX=1;exitY=0.5;exitDx=0;exitDy=0;strokeColor=#457B9D;fontColor=#1D3557;labelBackgroundColor=#F1FAEE;sketch=1;curved=1;" edge="1" parent="WIyWlLk6GJQsqaUBKTNV-1" source="y-X6n5EOjBlt5xmAGWL0-13">
          <mxGeometry width="50" height="50" relative="1" as="geometry">
            <mxPoint x="430" y="360" as="sourcePoint" />
            <mxPoint x="370" y="285" as="targetPoint" />
          </mxGeometry>
        </mxCell>
        <mxCell id="y-X6n5EOjBlt5xmAGWL0-27" value="" style="endArrow=classic;html=1;rounded=0;fontFamily=Tahoma;fontSize=12;exitX=0.5;exitY=1;exitDx=0;exitDy=0;entryX=0.5;entryY=0;entryDx=0;entryDy=0;strokeColor=#457B9D;fontColor=#1D3557;labelBackgroundColor=#F1FAEE;sketch=1;curved=1;" edge="1" parent="WIyWlLk6GJQsqaUBKTNV-1" source="y-X6n5EOjBlt5xmAGWL0-16" target="y-X6n5EOjBlt5xmAGWL0-18">
          <mxGeometry width="50" height="50" relative="1" as="geometry">
            <mxPoint x="430" y="360" as="sourcePoint" />
            <mxPoint x="480" y="310" as="targetPoint" />
          </mxGeometry>
        </mxCell>
        <mxCell id="y-X6n5EOjBlt5xmAGWL0-28" value="" style="endArrow=classic;html=1;rounded=0;fontFamily=Tahoma;fontSize=12;exitX=0.5;exitY=1;exitDx=0;exitDy=0;entryX=0.5;entryY=0;entryDx=0;entryDy=0;strokeColor=#457B9D;fontColor=#1D3557;labelBackgroundColor=#F1FAEE;sketch=1;curved=1;" edge="1" parent="WIyWlLk6GJQsqaUBKTNV-1" source="y-X6n5EOjBlt5xmAGWL0-18" target="y-X6n5EOjBlt5xmAGWL0-19">
          <mxGeometry width="50" height="50" relative="1" as="geometry">
            <mxPoint x="430" y="360" as="sourcePoint" />
            <mxPoint x="450" y="440" as="targetPoint" />
          </mxGeometry>
        </mxCell>
        <mxCell id="y-X6n5EOjBlt5xmAGWL0-42" value="while loop&lt;br&gt;condition" style="text;html=1;align=center;verticalAlign=middle;resizable=0;points=[];autosize=1;strokeColor=none;fillColor=none;fontColor=#1D3557;" vertex="1" parent="WIyWlLk6GJQsqaUBKTNV-1">
          <mxGeometry x="373.96" y="152" width="80" height="40" as="geometry" />
        </mxCell>
        <mxCell id="y-X6n5EOjBlt5xmAGWL0-43" value="" style="endArrow=none;dashed=1;html=1;sketch=1;fontColor=#1D3557;strokeColor=#457B9D;fillColor=#A8DADC;curved=1;entryX=-0.012;entryY=-0.05;entryDx=0;entryDy=0;entryPerimeter=0;" edge="1" parent="WIyWlLk6GJQsqaUBKTNV-1" target="y-X6n5EOjBlt5xmAGWL0-42">
          <mxGeometry width="50" height="50" relative="1" as="geometry">
            <mxPoint x="373.96" y="192" as="sourcePoint" />
            <mxPoint x="453.96" y="292" as="targetPoint" />
          </mxGeometry>
        </mxCell>
        <mxCell id="y-X6n5EOjBlt5xmAGWL0-44" value="" style="endArrow=none;dashed=1;html=1;sketch=1;fontColor=#1D3557;strokeColor=#457B9D;fillColor=#A8DADC;curved=1;entryX=1;entryY=-0.05;entryDx=0;entryDy=0;entryPerimeter=0;exitX=1;exitY=0.95;exitDx=0;exitDy=0;exitPerimeter=0;" edge="1" parent="WIyWlLk6GJQsqaUBKTNV-1" source="y-X6n5EOjBlt5xmAGWL0-42" target="y-X6n5EOjBlt5xmAGWL0-42">
          <mxGeometry width="50" height="50" relative="1" as="geometry">
            <mxPoint x="403.96" y="342" as="sourcePoint" />
            <mxPoint x="453.96" y="292" as="targetPoint" />
          </mxGeometry>
        </mxCell>
        <mxCell id="y-X6n5EOjBlt5xmAGWL0-45" value="" style="endArrow=none;dashed=1;html=1;sketch=1;fontColor=#1D3557;strokeColor=#457B9D;fillColor=#A8DADC;curved=1;" edge="1" parent="WIyWlLk6GJQsqaUBKTNV-1">
          <mxGeometry width="50" height="50" relative="1" as="geometry">
            <mxPoint x="380" y="190" as="sourcePoint" />
            <mxPoint x="450" y="190" as="targetPoint" />
          </mxGeometry>
        </mxCell>
        <mxCell id="y-X6n5EOjBlt5xmAGWL0-47" value="" style="endArrow=none;dashed=1;html=1;sketch=1;fontColor=#1D3557;strokeColor=#457B9D;fillColor=#A8DADC;curved=1;exitX=0.309;exitY=-0.022;exitDx=0;exitDy=0;exitPerimeter=0;" edge="1" parent="WIyWlLk6GJQsqaUBKTNV-1" source="y-X6n5EOjBlt5xmAGWL0-16">
          <mxGeometry width="50" height="50" relative="1" as="geometry">
            <mxPoint x="420" y="230" as="sourcePoint" />
            <mxPoint x="420" y="190" as="targetPoint" />
          </mxGeometry>
        </mxCell>
      </root>
    </mxGraphModel>
  </diagram>
</mxfile>
